<?xml version="1.0" standalone="no"?>
<!DOCTYPE svg PUBLIC "-//W3C//DTD SVG 20010904//EN"
 "http://www.w3.org/TR/2001/REC-SVG-20010904/DTD/svg10.dtd">
<svg version="1.0" xmlns="http://www.w3.org/2000/svg"
 width="538.000000pt" height="538.000000pt" viewBox="0 0 538.000000 538.000000"
 preserveAspectRatio="xMidYMid meet">
<metadata>
Created by potrace 1.11, written by Peter Selinger 2001-2013
</metadata>
<g transform="translate(0.000000,538.000000) scale(0.100000,-0.100000)"
fill="#000000" stroke="none">
<path d="M3061 5117 c-24 -45 -47 -84 -50 -87 -3 -3 -18 -27 -32 -55 -14 -27
-47 -88 -74 -135 -26 -47 -63 -114 -83 -150 -19 -36 -44 -81 -55 -100 -11 -19
-76 -136 -144 -260 -69 -124 -131 -231 -137 -237 -9 -10 -21 -10 -46 -3 -68
20 -227 42 -330 46 -58 2 -107 4 -110 5 -62 12 -364 -23 -495 -57 -33 -9 -68
-18 -78 -19 -9 -2 -22 -7 -27 -10 -5 -3 -18 -8 -27 -10 -39 -7 -214 -81 -303
-128 -52 -27 -105 -55 -117 -61 -13 -6 -23 -14 -23 -18 0 -4 -15 -14 -34 -23
-18 -9 -43 -25 -54 -35 -12 -11 -25 -20 -31 -20 -5 0 -11 -3 -13 -7 -1 -5 -25
-26 -53 -48 -152 -121 -284 -263 -398 -428 -26 -37 -47 -70 -47 -73 0 -3 -10
-20 -22 -37 -45 -64 -135 -258 -174 -377 -32 -98 -51 -172 -69 -267 -3 -16 -7
-37 -10 -48 -13 -61 -20 -169 -20 -315 0 -182 6 -257 30 -375 3 -14 7 -37 10
-52 16 -76 64 -236 91 -300 8 -18 21 -50 30 -70 13 -32 52 -109 98 -198 18
-35 129 -199 145 -217 9 -9 27 -31 41 -50 31 -41 231 -242 285 -286 178 -145
537 -331 708 -366 12 -3 58 -14 102 -25 44 -10 103 -22 130 -26 28 -4 68 -10
90 -13 55 -8 397 -7 465 2 68 9 95 13 118 20 9 3 35 7 57 11 22 3 54 10 70 15
157 49 228 72 256 84 19 8 39 15 44 16 42 10 354 191 401 233 7 7 19 17 26 22
153 117 340 317 433 462 l40 63 852 2 852 3 -46 80 c-51 90 -79 139 -115 205
-77 139 -114 207 -125 225 -6 11 -20 36 -30 55 -9 19 -39 72 -65 118 -27 46
-48 87 -48 92 0 4 -3 10 -7 12 -5 2 -21 29 -38 60 -41 78 -56 105 -86 158 -15
25 -41 72 -60 105 -18 33 -43 78 -55 100 -12 22 -35 63 -50 90 -15 28 -78 141
-140 253 -63 111 -114 206 -114 211 0 5 -3 11 -8 13 -4 2 -19 26 -33 53 -15
28 -68 124 -119 215 -51 91 -107 191 -124 222 -77 141 -159 288 -193 350 -21
36 -101 180 -178 318 -77 138 -151 270 -163 293 -13 23 -39 70 -57 105 -18 35
-38 68 -43 75 -5 7 -27 45 -48 85 -22 41 -43 81 -49 90 -5 10 -30 53 -54 97
-24 44 -52 94 -61 110 -9 17 -36 66 -60 110 -24 44 -48 82 -52 83 -4 2 -8 9
-8 15 0 7 -10 29 -23 49 l-22 37 -44 -82z"/>
</g>
</svg>
